HIERARCHY
ROOT hip
{
  OFFSET 0 0 0
  CHANNELS 6 Xposition Yposition Zposition Zrotation Yrotation Xrotation
  JOINT abdomen
  {
    OFFSET 0 20.6881 -0.73152
    CHANNELS 3 Zrotation Xrotation Yrotation
    JOINT chest
    {
      OFFSET 0 11.7043 -0.48768
      CHANNELS 3 Zrotation Xrotation Yrotation
      JOINT neck
      {
        OFFSET 0 22.1894 -2.19456
        CHANNELS 3 Zrotation Xrotation Yrotation
        JOINT head
        {
          OFFSET -0.24384 7.07133 1.2192
          CHANNELS 3 Zrotation Xrotation Yrotation
          JOINT leftEye
          {
            OFFSET 4.14528 8.04674 8.04672
            CHANNELS 3 Zrotation Xrotation Yrotation
            End Site
            {
              OFFSET 1 0 0
            }
          }
          JOINT rightEye
          {
            OFFSET -3.6576 8.04674 8.04672
            CHANNELS 3 Zrotation Xrotation Yrotation
            End Site
            {
              OFFSET 1 0 0
            }
          }
        }
      }
      JOINT rCollar
      {
        OFFSET -2.68224 19.2634 -4.8768
        CHANNELS 3 Zrotation Xrotation Yrotation
        JOINT rShldr
        {
          OFFSET -8.77824 -1.95073 1.46304
          CHANNELS 3 Zrotation Xrotation Yrotation
          JOINT rForeArm
          {
            OFFSET -28.1742 -1.7115 0.48768
            CHANNELS 3 Zrotation Xrotation Yrotation
            JOINT rHand
            {
              OFFSET -22.5879 0.773209 7.07136
              CHANNELS 3 Zrotation Xrotation Yrotation
              JOINT rThumb1
              {
                OFFSET -1.2192 -0.487915 3.41376
                CHANNELS 3 Zrotation Xrotation Yrotation
                JOINT rThumb2
                {
                  OFFSET -3.37035 -0.52449 3.41376
                  CHANNELS 3 Zrotation Xrotation Yrotation
                  End Site
                  {
                    OFFSET -1.78271 -1.18214 1.43049
                  }
                }
              }
              JOINT rIndex1
              {
                OFFSET -7.75947 0.938293 5.60832
                CHANNELS 3 Zrotation Xrotation Yrotation
                JOINT rIndex2
                {
                  OFFSET -2.54057 -0.884171 1.56538
                  CHANNELS 3 Zrotation Xrotation Yrotation
                  End Site
                  {
                    OFFSET -1.62519 -0.234802 1.16502
                  }
                }
              }
              JOINT rMid1
              {
                OFFSET -8.24714 1.18213 3.41376
                CHANNELS 3 Zrotation Xrotation Yrotation
                JOINT rMid2
                {
                  OFFSET -3.10165 -0.590103 1.0647
                  CHANNELS 3 Zrotation Xrotation Yrotation
                  End Site
                  {
                    OFFSET -2.48547 -0.328903 0.83742
                  }
                }
              }
              JOINT rRing1
              {
                OFFSET -8.82822 0.546677 1.51678
                CHANNELS 3 Zrotation Xrotation Yrotation
                JOINT rRing2
                {
                  OFFSET -2.60934 -0.819778 -0.0198488
                  CHANNELS 3 Zrotation Xrotation Yrotation
                  End Site
                  {
                    OFFSET -2.33842 -0.294052 0.168128
                  }
                }
              }
              JOINT rPinky1
              {
                OFFSET -8.27202 -0.0477905 -0.4584
                CHANNELS 3 Zrotation Xrotation Yrotation
                JOINT rPinky2
                {
                  OFFSET -1.82734 -0.647385 -0.700984
                  CHANNELS 3 Zrotation Xrotation Yrotation
                  End Site
                  {
                    OFFSET -1.69225 -0.51767 -0.607171
                  }
                }
              }
            }
          }
        }
      }
      JOINT lCollar
      {
        OFFSET 2.68224 19.2634 -4.8768
        CHANNELS 3 Zrotation Xrotation Yrotation
        JOINT lShldr
        {
          OFFSET 8.77824 -1.95073 1.46304
          CHANNELS 3 Zrotation Xrotation Yrotation
          JOINT lForeArm
          {
            OFFSET 28.1742 -1.7115 0.48768
            CHANNELS 3 Zrotation Xrotation Yrotation
            JOINT lHand
            {
              OFFSET 22.5879 0.773209 7.07136
              CHANNELS 3 Zrotation Xrotation Yrotation
              JOINT lThumb1
              {
                OFFSET 1.2192 -0.487915 3.41376
                CHANNELS 3 Zrotation Xrotation Yrotation
                JOINT lThumb2
                {
                  OFFSET 3.37035 -0.52449 3.41376
                  CHANNELS 3 Zrotation Xrotation Yrotation
                  End Site
                  {
                    OFFSET 1.78271 -1.18214 1.43049
                  }
                }
              }
              JOINT lIndex1
              {
                OFFSET 7.75947 0.938293 5.60832
                CHANNELS 3 Zrotation Xrotation Yrotation
                JOINT lIndex2
                {
                  OFFSET 2.54057 -0.884171 1.56538
                  CHANNELS 3 Zrotation Xrotation Yrotation
                  End Site
                  {
                    OFFSET 1.62519 -0.234802 1.16502
                  }
                }
              }
              JOINT lMid1
              {
                OFFSET 8.24714 1.18213 3.41376
                CHANNELS 3 Zrotation Xrotation Yrotation
                JOINT lMid2
                {
                  OFFSET 3.10165 -0.590103 1.0647
                  CHANNELS 3 Zrotation Xrotation Yrotation
                  End Site
                  {
                    OFFSET 2.48547 -0.328903 0.83742
                  }
                }
              }
              JOINT lRing1
              {
                OFFSET 8.82822 0.546677 1.51678
                CHANNELS 3 Zrotation Xrotation Yrotation
                JOINT lRing2
                {
                  OFFSET 2.60934 -0.819778 -0.0198488
                  CHANNELS 3 Zrotation Xrotation Yrotation
                  End Site
                  {
                    OFFSET 2.33842 -0.294052 0.168128
                  }
                }
              }
              JOINT lPinky1
              {
                OFFSET 8.27202 -0.0477905 -0.4584
                CHANNELS 3 Zrotation Xrotation Yrotation
                JOINT lPinky2
                {
                  OFFSET 1.82734 -0.647385 -0.700984
                  CHANNELS 3 Zrotation Xrotation Yrotation
                  End Site
                  {
                    OFFSET 1.69225 -0.51767 -0.607171
                  }
                }
              }
            }
          }
        }
      }
    }
  }
  JOINT rButtock
  {
    OFFSET -8.77824 4.35084 1.2192
    CHANNELS 3 Zrotation Xrotation Yrotation
    JOINT rThigh
    {
      OFFSET 0 -1.70687 -2.19456
      CHANNELS 3 Zrotation Xrotation Yrotation
      JOINT rShin
      {
        OFFSET 0 -36.8199 0.73152
        CHANNELS 3 Zrotation Xrotation Yrotation
        JOINT rFoot
        {
          OFFSET 0.73152 -45.1104 -5.12064
          CHANNELS 3 Zrotation Xrotation Yrotation
          End Site
          {
            OFFSET -1.1221 -3.69964 12.103
          }
        }
      }
    }
  }
  JOINT lButtock
  {
    OFFSET 8.77824 4.35084 1.2192
    CHANNELS 3 Zrotation Xrotation Yrotation
    JOINT lThigh
    {
      OFFSET 0 -1.70687 -2.19456
      CHANNELS 3 Zrotation Xrotation Yrotation
      JOINT lShin
      {
        OFFSET 0 -36.8199 0.73152
        CHANNELS 3 Zrotation Xrotation Yrotation
        JOINT lFoot
        {
          OFFSET -0.73152 -45.1104 -5.12064
          CHANNELS 3 Zrotation Xrotation Yrotation
          End Site
          {
            OFFSET 1.1221 -3.69964 12.103
          }
        }
      }
    }
  }
}
MOTION
Frames:	4
Frame Time:	0.03333
-6.553100000000001 75.7954 -0.41250000000000003 -108.637419 86.95192 -101.896476 -1.135106 0.071424 -0.045887 3.640854 -3.037494 -1.654552 2.193345 32.997117 137.698132 -21.849135 18.592905 -173.949558 -25.942742 -4.2719 18.394854 11.199042 0.791831 8.063205 -1.423067 -43.827572 -9.021654 75.201996 20.86776 -46.58218 177.121578 -11.536609 106.755154 172.853687 -15.920992 143.61887 6.958118 -3.481287 2.679922 -46.194559 37.503389 49.475889 41.230655 -56.449993 3.1978 -66.113718 47.200878 54.469456 6.902543 -20.438305 -0.192724 -7.162574 26.946072 0.147545 0.704846 -2.032206 4.384714 -146.024794 -12.878219 -178.495308 -140.298242 -19.845579 -125.186541 -149.663902 -7.408908 -129.224429 -6.197637 -44.302562 7.387242 -71.838725 12.055015 37.214763 -105.469711 -29.750404 -58.944782 178.423084 27.760025 -148.786758 75.590778 36.703965 -44.963446 7.902106 -15.770812 -15.580217 12.912295 18.384783 -12.720857 178.282734 -39.474154 -103.515209 151.884855 19.680707 -132.771526 164.214936 5.6578 -129.573005 144.278689 1.114342 -179.699766 131.857847 -64.384589 150.102179 70.725367 -48.807795 78.430613 -4.121377 2.994381 -3.537352 101.896019 67.048421 45.258791 -133.202796 38.714021 -180.0 -18.878285 -33.539817 -160.839526 159.93698 -64.773985 63.860773 169.933073 68.412717 10.809019 -167.947595 52.681167 -9.491705 6.564559 43.183722 121.719143 -139.543989 -50.43315 127.468211
-6.623900000000001 75.9464 -0.2593 -109.176241 86.889907 -102.416937 1.08015 -2.91951 -102.298885 -0.19038 1.399892 100.827957 4.19255 24.973494 89.461903 -20.126383 -1.165444 -130.35475 -27.337496 -4.990348 20.317241 11.145022 0.892508 9.128518 -2.091723 -27.316814 -5.790305 -99.147431 -11.606883 -149.216797 -179.535812 -7.460885 -144.827861 -9.773391 23.790416 0.575971 176.303093 -22.430174 84.905353 -140.998916 24.195599 67.055669 53.733976 -63.73847 12.155652 12.029127 7.260456 0.06418 -171.302086 -33.414935 141.990207 0.51605 0.232824 7.045497 -143.954575 9.619574 172.577572 -163.297673 -1.012143 171.58492 64.649737 84.754168 -36.200079 -133.975793 -36.573921 -138.175174 141.64653 37.621294 -147.065467 41.142454 -19.495172 -44.443828 163.475178 -45.04192 125.608701 6.030953 28.505328 -2.55007 -89.708966 -47.916089 -34.106238 89.628751 28.780361 -55.837627 115.095594 25.264668 -97.788173 -6.477071 -5.427752 1.22534 160.900669 0.702569 -138.446052 -178.626409 -17.388885 -135.275623 143.245817 1.605784 -179.513385 15.262788 -60.021067 34.188791 20.660109 -38.652103 29.500012 157.580605 52.712276 152.807218 -120.182803 62.412387 -48.890661 145.170488 43.885465 -75.125585 -34.410008 -11.185843 85.817073 18.106463 -13.475772 3.499435 7.24758 7.319616 0.0 -0.776289 -25.329224 -180.0 -10.655342 -42.103598 -91.210305 -83.454938 55.368633 -12.618227
-6.685099999999999 75.771 -0.0312 -102.905192 86.77771 -96.260271 -1.026522 0.300404 -0.037393 3.46376 -3.381294 -1.820066 5.139906 25.046285 86.993912 -20.071866 -1.393313 -127.309913 -30.797474 -7.06215 25.256611 13.174588 1.136908 9.821333 -0.617249 -39.690993 -7.413211 67.49579 10.475518 -42.445953 -170.000346 -13.213168 109.569269 167.372114 -30.112652 141.139896 -75.593982 36.609694 44.986649 -151.60672 -38.740451 74.02119 -174.080312 -52.613597 118.12259 6.696545 23.883103 -3.47231 -161.68365 -8.814195 140.601668 -172.678015 -26.708021 137.474797 -69.967387 -75.426534 -87.728061 -152.824924 -20.100093 -175.219438 -1.120504 26.755652 3.115947 -141.20062 61.114864 -163.198035 147.92669 21.778 -153.79616 171.207102 58.397514 -111.262283 97.178233 84.437492 -151.425447 9.38986 34.468812 -2.387668 -176.379707 -22.560561 -81.826375 -97.90989 -71.296425 -66.73999 81.346159 36.814785 -70.852962 176.068497 -21.342917 -104.981334 169.844205 -28.347477 -140.952062 174.947222 -4.351643 -143.384507 -4.795504 -0.98204 -1.71372 -12.397636 1.249489 -3.300457 149.559126 64.63235 152.186548 148.961126 11.52712 139.728302 106.285359 69.170492 44.603039 -137.786947 41.697119 126.251466 22.011066 -29.87884 -108.588241 174.024348 -32.908434 50.94125 170.513944 67.538492 10.248881 -167.873418 49.181006 -180.0 -1.751227 -45.662309 40.40328 -66.187222 42.436091 171.918197
-6.8658 75.6626 0.1633 -109.861672 86.359269 -103.368349 1.461245 -1.516942 -79.393982 1.663296 0.663812 77.694225 2.44764 20.206327 54.170444 -10.775358 -12.223896 -93.978445 -33.861332 -9.247898 29.75855 14.412512 1.406122 11.086671 -39.032401 -86.123999 -55.912661 8.421893 13.24888 -59.398431 -110.468746 85.073357 150.856164 -6.648213 14.733379 -0.853097 -171.18862 -17.099374 88.464925 -109.650271 17.45669 41.317967 12.214536 -18.640987 -4.837391 -164.929147 -18.00229 103.097658 -9.68609 20.016386 9.259274 -85.9474 69.571875 79.884271 1.96055 -0.463787 2.891667 13.623044 0.627473 -1.947958 -124.531447 -35.99431 -109.295851 -169.108725 39.346116 -132.380701 29.258293 56.760997 -33.359548 -21.618298 13.383537 -71.629589 15.152901 -57.345025 -39.980459 7.837662 27.88258 -0.613496 168.47573 -9.340588 -81.190234 -103.610215 -59.760602 -71.167607 104.384635 26.916425 -88.63353 -0.679717 -4.50778 -2.317495 151.11385 11.649077 -134.530665 4.256875 -0.121461 -6.35034 -6.722449 -1.723846 -3.589179 137.130876 60.145395 -153.88871 139.046442 62.994138 162.623068 166.04518 64.322811 145.915442 100.311866 69.712944 48.798171 -131.913806 43.256387 -36.622897 -8.752769 33.68262 46.363067 51.58536 -55.399765 -23.862336 -19.07142 11.533536 -16.299206 34.009338 -18.859247 64.402731 25.227749 30.367066 -124.833554 162.033177 62.355459 -81.332102
